<svg width="17" height="17" viewBox="0 0 17 17" fill="none" xmlns="http://www.w3.org/2000/svg">
<path d="M1.66 1.67001L1.66 7.48001L5.81 7.48001L5.81 1.67001L1.66 1.67001ZM7.47 7.48001C7.47 8.39683 6.72682 9.14001 5.81 9.14001L1.66 9.14001C0.743207 9.14001 0 8.39683 0 7.48001L0 1.67001C0 0.753217 0.743207 0.0100098 1.66 0.0100098L5.81 0.0100098C6.72682 0.0100098 7.47 0.753217 7.47 1.67001L7.47 7.48001Z" fill="#1E2128"/>
<path d="M10.8199 1.66L10.8199 4.15L14.9699 4.15V1.66L10.8199 1.66ZM16.6299 4.15C16.6299 5.06679 15.8867 5.81 14.9699 5.81L10.8199 5.81C9.90309 5.81 9.15991 5.06679 9.15991 4.15L9.15991 1.66C9.15991 0.743207 9.90309 0 10.8199 0L14.9699 0C15.8867 0 16.6299 0.743207 16.6299 1.66V4.15Z" fill="#1E2128"/>
<path d="M10.8199 9.17001L10.8199 14.98L14.9699 14.98L14.9699 9.17001L10.8199 9.17001ZM16.6299 14.98C16.6299 15.8968 15.8867 16.64 14.9699 16.64H10.8199C9.90309 16.64 9.15991 15.8968 9.15991 14.98L9.15991 9.17001C9.15991 8.25319 9.90309 7.51001 10.8199 7.51001L14.9699 7.51001C15.8867 7.51001 16.6299 8.25319 16.6299 9.17001V14.98Z" fill="#1E2128"/>
<path d="M1.66 12.5L1.66 14.99L5.81 14.99L5.81 12.5L1.66 12.5ZM7.47 14.99C7.47 15.9068 6.72682 16.65 5.81 16.65H1.66C0.743207 16.65 0 15.9068 0 14.99L0 12.5C0 11.5831 0.743207 10.84 1.66 10.84L5.81 10.84C6.72682 10.84 7.47 11.5831 7.47 12.5L7.47 14.99Z" fill="#1E2128"/>
</svg>
