<svg width="20" height="20" viewBox="0 0 20 20" fill="none" xmlns="http://www.w3.org/2000/svg">
<path d="M17.48 11.665C17.48 10.5643 17.0424 9.50906 16.2642 8.73076C15.4859 7.95252 14.4307 7.51498 13.33 7.51498C12.2294 7.51498 11.1741 7.95252 10.3958 8.73076C9.6176 9.50906 9.18002 10.5643 9.18002 11.665L9.18002 16.645H10.84L10.84 11.665C10.84 11.0045 11.1025 10.3714 11.5695 9.90447C12.0365 9.43751 12.6696 9.17498 13.33 9.17498C13.9905 9.17498 14.6236 9.43751 15.0905 9.90447C15.5575 10.3714 15.82 11.0045 15.82 11.665V16.645H17.48V11.665ZM19.14 17.475C19.14 17.9334 18.7684 18.305 18.31 18.305H14.99C14.5316 18.305 14.16 17.9334 14.16 17.475L14.16 11.665C14.16 11.4449 14.0725 11.2338 13.9168 11.0782C13.7612 10.9225 13.5501 10.835 13.33 10.835C13.1099 10.835 12.8988 10.9225 12.7432 11.0782C12.5875 11.2338 12.5 11.4449 12.5 11.665L12.5 17.475C12.5 17.9334 12.1284 18.305 11.67 18.305H8.35002C7.89163 18.305 7.52002 17.9334 7.52002 17.475L7.52002 11.665C7.52002 10.1241 8.13177 8.64594 9.22135 7.55631C10.311 6.46673 11.7891 5.85498 13.33 5.85498C14.8709 5.85498 16.3491 6.46673 17.4387 7.55631C18.5283 8.64594 19.14 10.1241 19.14 11.665L19.14 17.475Z" fill="#171A1F"/>
<path d="M4.98997 6.69019L5.07507 6.69424C5.4935 6.73684 5.81997 7.09051 5.81997 7.52019L5.81997 17.4802C5.81997 17.9386 5.44836 18.3102 4.98997 18.3102H1.66997C1.21157 18.3102 0.839966 17.9386 0.839966 17.4802L0.839966 7.52019L0.844016 7.43508C0.88662 7.01665 1.24029 6.69019 1.66997 6.69019L4.98997 6.69019ZM2.49997 16.6502H4.15997L4.15997 8.35019H2.49997L2.49997 16.6502Z" fill="#171A1F"/>
<path d="M4.15997 3.33009C4.15997 2.8717 3.78836 2.50009 3.32997 2.50009C2.87157 2.50009 2.49997 2.8717 2.49997 3.33009C2.49997 3.78848 2.87157 4.16009 3.32997 4.16009C3.78836 4.16009 4.15997 3.78848 4.15997 3.33009ZM5.81997 3.33009C5.81997 4.70527 4.70515 5.82009 3.32997 5.82009C1.95478 5.82009 0.839966 4.70527 0.839966 3.33009C0.839966 1.9549 1.95478 0.840088 3.32997 0.840088C4.70515 0.840088 5.81997 1.9549 5.81997 3.33009Z" fill="#171A1F"/>
</svg>
