<svg width="19" height="16" viewBox="0 0 19 16" fill="none" xmlns="http://www.w3.org/2000/svg">
<path d="M10.4372 0.494174C11.8624 -0.248353 13.7216 -0.20208 15.1983 0.961862C15.2705 0.944432 15.3541 0.922271 15.448 0.890532C15.6788 0.81252 15.9269 0.704155 16.1621 0.58901C16.3951 0.474868 16.6038 0.35973 16.7545 0.272896C16.8296 0.229686 16.8894 0.193523 16.9297 0.169146C16.9498 0.15697 16.9654 0.147566 16.9751 0.14159C16.9796 0.138734 16.9828 0.136328 16.9848 0.135107H16.9864C17.283 -0.0522235 17.6659 -0.0334406 17.942 0.182924C18.1834 0.372205 18.2977 0.676483 18.2484 0.972403L18.2168 1.09885V1.10046L18.216 1.10209C18.2154 1.10371 18.2144 1.10612 18.2135 1.10857C18.2119 1.11345 18.2099 1.12001 18.207 1.12803C18.2014 1.14429 18.1938 1.16699 18.1835 1.1953C18.163 1.25214 18.1326 1.3327 18.0936 1.43117C18.0159 1.62761 17.9006 1.89989 17.7491 2.20848C17.4994 2.71716 17.131 3.36016 16.6451 3.92846C17.7157 12.5807 8.31493 18.8387 0.736545 14.2102L0.370988 13.9784C0.0599539 13.7723 -0.074644 13.3832 0.0410962 13.0285C0.156923 12.674 0.494583 12.4403 0.867046 12.457C1.99652 12.5084 3.11426 12.2738 4.07681 11.7924C0.457067 9.79519 -1.13539 5.07076 0.930267 1.26987L0.984574 1.18314C1.12211 0.990879 1.33707 0.864735 1.57546 0.840284C1.84787 0.812479 2.11673 0.921416 2.29361 1.13046C3.76165 2.86524 5.94649 3.95553 8.20977 4.13353C8.2189 2.47947 9.14975 1.16498 10.4372 0.494174ZM14.3732 2.43868C13.4021 1.53254 12.1479 1.47565 11.2047 1.96694C10.2795 2.44896 9.65107 3.45771 9.94115 4.81196C9.9927 5.05282 9.93501 5.30466 9.78304 5.49849C9.63098 5.69236 9.40033 5.80899 9.15406 5.81623C6.51838 5.8937 3.8884 4.90917 1.93697 3.14223C0.974274 6.27998 2.77566 9.84923 6.04805 10.8311C6.33733 10.9179 6.55707 11.1552 6.62111 11.4503C6.67711 11.7086 6.60635 11.9758 6.4355 12.1717L6.35607 12.2512C5.58316 12.9274 4.66826 13.4229 3.68856 13.7345C9.6734 15.5639 16.021 10.481 14.9503 3.78905C14.9084 3.52641 14.9949 3.25983 15.1829 3.07171C15.3338 2.92084 15.4742 2.74952 15.606 2.56999C15.3911 2.62292 15.1641 2.66239 14.9397 2.66239C14.7295 2.66239 14.5269 2.58212 14.3732 2.43868Z" fill="#171A1F"/>
</svg>
