<svg width="11" height="19" viewBox="0 0 11 19" fill="none" xmlns="http://www.w3.org/2000/svg">
<path d="M5.81 4.98C5.81 4.53974 5.98505 4.11764 6.2963 3.80633C6.60763 3.49502 7.02977 3.32 7.47 3.32L9.13 3.32V1.66L7.47 1.66C6.58945 1.66 5.74526 2.01004 5.12268 2.63266C4.50001 3.25528 4.15 4.09948 4.15 4.98L4.15 7.47C4.15 7.92841 3.77841 8.3 3.32 8.3H1.66L1.66 9.96H3.32C3.77841 9.96 4.15 10.3316 4.15 10.79L4.15 16.6H5.81L5.81 10.79C5.81 10.3316 6.18159 9.96 6.64 9.96H8.48235L8.89735 8.3H6.64C6.18159 8.3 5.81 7.92841 5.81 7.47L5.81 4.98ZM7.47 6.64L9.96 6.64C10.2156 6.64 10.4568 6.7579 10.6141 6.95936C10.7713 7.16075 10.8268 7.42314 10.7649 7.67103L9.93485 10.991C9.84247 11.3605 9.51089 11.62 9.13 11.62H7.47L7.47 17.43C7.47 17.8884 7.09841 18.26 6.64 18.26H3.32C2.86161 18.26 2.49 17.8884 2.49 17.43L2.49 11.62H0.83C0.371608 11.62 0 11.2484 0 10.79L0 7.47L0.00405036 7.38489C0.0466543 6.96646 0.400326 6.64 0.83 6.64L2.49 6.64L2.49 4.98C2.49 3.65922 3.01505 2.39292 3.94897 1.45898C4.88289 0.52505 6.14922 0 7.47 0L9.96 0L10.0451 0.00405036C10.4636 0.0466543 10.79 0.400326 10.79 0.83L10.79 4.15C10.79 4.60839 10.4184 4.98 9.96 4.98L7.47 4.98L7.47 6.64Z" fill="#171A1F"/>
</svg>
