<svg width="11" height="14" viewBox="0 0 11 14" fill="none" xmlns="http://www.w3.org/2000/svg">
<path d="M9.38 12.69V11.35C9.38 10.8169 9.16808 10.3058 8.79114 9.92886C8.46136 9.59909 8.02894 9.39554 7.56892 9.34978L7.37 9.34L3.35 9.34C2.81691 9.34 2.30582 9.55192 1.92887 9.92886C1.55192 10.3058 1.34 10.8169 1.34 11.35L1.34 12.69C1.34 13.06 1.04003 13.36 0.67 13.36C0.299972 13.36 0 13.06 0 12.69L0 11.35C0 10.4615 0.353197 9.60967 0.981443 8.98142C1.6097 8.35322 2.46153 8 3.35 8L7.37 8L7.53616 8.00395C8.36415 8.04502 9.14959 8.39249 9.73858 8.98142C10.3668 9.60967 10.72 10.4615 10.72 11.35V12.69C10.72 13.06 10.42 13.36 10.05 13.36C9.67996 13.36 9.38 13.06 9.38 12.69Z" fill="white"/>
<path d="M7.37001 3.35C7.37001 2.23991 6.47013 1.34 5.36001 1.34C4.24989 1.34 3.35001 2.23991 3.35001 3.35C3.35001 4.46009 4.24989 5.36 5.36001 5.36C6.47013 5.36 7.37001 4.46009 7.37001 3.35ZM8.71001 3.35C8.71001 5.20015 7.21015 6.7 5.36001 6.7C3.50986 6.7 2.01001 5.20015 2.01001 3.35C2.01001 1.49985 3.50986 0 5.36001 0C7.21015 0 8.71001 1.49985 8.71001 3.35Z" fill="white"/>
</svg>
